Formula One 2011 Season

Race 5: Spanish Grand Prix, Circuit De Catalunya

Record Source: BBC One Red Button Stream
Original Format: MPEG TS Stream
Date: Friday 20th May 2011
Time: 13:00 to 14:30

After several requests, I have now opted for the Matroska container format (mkv) for all sessions.


Spain Grand Prix Practice Session 2

F1 coverage of the 1st Practice Session for the 5th Race meeting of the 
2011 Formula One season, for the Spanish Grand Prix, at the Circuit De Catalunya

Name                    	 : F1 2011 Spanish Practice 2.mkv
Format                           : Matroska
File size                        : 1.49 GiB
Duration                         : 1h 40mn
Overall bit rate                 : 2 135 Kbps
Writing application              : HandBrake 0.9.5
Writing library                  : libmkv 0.6.4.1

Video
ID                               : 1
Format                           : AVC
Format/Info                      : Advanced Video Codec
Format profile                   : High@L3.0
Format settings, CABAC           : Yes
Format settings, ReFrames        : 4 frames
Codec ID                         : V_MPEG4/ISO/AVC
Duration                         : 1h 40mn
Bit rate                         : 2 008 Kbps
Width                            : 544 pixels
Height                           : 576 pixels
Display aspect ratio             : 16:9
Frame rate mode                  : Variable
Frame rate                       : 25.000 fps
Color space                      : YUV
Chroma subsampling               : 4:2:0
Bit depth                        : 8 bits
Scan type                        : Progressive
Bits/(Pixel*Frame)               : 0.256
Stream size                      : 1.37 GiB (92%)
Writing library                  : x264 core 112
Language                         : English
Color primaries                  : BT.601-6 525, BT.1358 525, BT.1700 NTSC, SMPTE 170M
Transfer characteristics         : BT.709-5, BT.1361
Matrix coefficients              : BT.601-6 525, BT.1358 525, BT.1700 NTSC, SMPTE 170M

Audio
ID                               : 2
Format                           : AC-3
Format/Info                      : Audio Coding 3
Mode extension                   : CM (complete main)
Codec ID                         : A_AC3
Duration                         : 1h 40mn
Bit rate mode                    : Constant
Bit rate                         : 128 Kbps
Channel(s)                       : 2 channels
Channel positions                : Front: L R
Sampling rate                    : 48.0 KHz
Bit depth                        : 16 bits
Compression mode                 : Lossy
Stream size                      : 91.7 MiB (6%)
Language                         : English


Enjoy

The BlackKnight

